<?xml version="1.0" encoding="UTF-8" standalone="no"?>
<!DOCTYPE svg PUBLIC "-//W3C//DTD SVG 1.1//EN" "http://www.w3.org/Graphics/SVG/1.1/DTD/svg11.dtd">
<svg width="100%" height="100%" viewBox="0 0 355 421" version="1.1" xmlns="http://www.w3.org/2000/svg" xmlns:xlink="http://www.w3.org/1999/xlink" xml:space="preserve" xmlns:serif="http://www.serif.com/" style="fill-rule:evenodd;clip-rule:evenodd;stroke-linecap:round;stroke-linejoin:round;stroke-miterlimit:1.5;">
    <g transform="matrix(1,0,0,1,4842.87,-4499.27)">
        <g id="Head" transform="matrix(-0.41465,0.0169616,0.0162734,0.397824,-5822.71,3808.92)">
            <g transform="matrix(0.737972,0,0,0.793916,-781.299,442.609)">
                <path d="M-2601.92,2147.72C-2477.31,2147.72 -2284.78,2069.5 -2199.65,2147.72C-2104.51,2235.13 -2123.84,2486.55 -2123.84,2625.8C-2123.84,2889.66 -2338.06,3103.88 -2601.92,3103.88C-2865.78,3103.88 -3080,2889.66 -3080,2625.8C-3080,2457.76 -3101.57,2232.98 -2970.31,2147.72C-2895.47,2099.1 -2697.74,2147.72 -2601.92,2147.72Z" style="fill:rgb(250,213,189);"/>
            </g>
            <g transform="matrix(0.988109,0,0,1,-28.6316,-63.7432)">
                <path d="M-3058.52,2516.27C-3058.52,2516.27 -3006.07,2345.01 -2983,2298C-2959.93,2250.99 -2605.49,2203.33 -2427,2271C-2427,2271 -2387.62,2470.37 -2344.41,2516.27C-2344.41,2516.27 -2269.3,2218.7 -2427,2147.72C-2427,2147.72 -2255.01,1886.92 -2548,1907.84C-2840.99,1928.77 -2900.36,2116.75 -2928,2177.56C-2928,2177.56 -3157.83,2113.41 -3058.52,2516.27Z" style="fill:rgb(71,34,17);"/>
                <clipPath id="_clip1">
                    <path d="M-3058.52,2516.27C-3058.52,2516.27 -3006.07,2345.01 -2983,2298C-2959.93,2250.99 -2605.49,2203.33 -2427,2271C-2427,2271 -2387.62,2470.37 -2344.41,2516.27C-2344.41,2516.27 -2269.3,2218.7 -2427,2147.72C-2427,2147.72 -2255.01,1886.92 -2548,1907.84C-2840.99,1928.77 -2900.36,2116.75 -2928,2177.56C-2928,2177.56 -3157.83,2113.41 -3058.52,2516.27Z"/>
                </clipPath>
                <g clip-path="url(#_clip1)">
                    <g transform="matrix(1,0,0,1,-8.03299,73.7432)">
                        <path d="M-2954,2243C-2954,2243 -2961.14,2208.49 -3009,2188.94C-3055.04,2170.14 -3153.46,2158.28 -3164.52,2209C-3175.59,2259.72 -3075.39,2493.27 -3075.39,2493.27L-3009,2452.53L-2954,2243Z" style="fill:rgb(238,238,238);fill-opacity:0.66;"/>
                    </g>
                    <g transform="matrix(-1,0,0,1,-5386.23,38.7432)">
                        <path d="M-2954,2243C-2954,2243 -2985.78,2199.97 -3009,2188.94C-3044.09,2172.27 -3153.46,2158.28 -3164.52,2209C-3175.59,2259.72 -3075.39,2493.27 -3075.39,2493.27L-3009,2452.53L-2954,2243Z" style="fill:rgb(238,238,238);fill-opacity:0.66;"/>
                    </g>
                </g>
            </g>
            <g transform="matrix(1.00306,0,0,1,-1777.45,1186.82)">
                <path d="M-1321,1180.38C-1321,1180.38 -1199.2,1101.34 -955,1180.38C-955,1180.38 -933.639,1366.64 -1082,1382.56C-1082,1382.56 -1190,1399.64 -1267,1359.42C-1267,1359.42 -1308.33,1319.24 -1321,1180.38Z" style="fill:none;stroke:black;stroke-width:47.17px;"/>
                <g transform="matrix(-1,0,0,1,-1835.31,0)">
                    <path d="M-1321,1180.38C-1321,1180.38 -1199.2,1101.34 -955,1180.38C-955,1180.38 -933.639,1366.64 -1082,1382.56C-1082,1382.56 -1190,1399.64 -1267,1359.42C-1267,1359.42 -1308.33,1319.24 -1321,1180.38Z" style="fill:none;stroke:black;stroke-width:47.17px;"/>
                </g>
                <path d="M-953.932,1180.38L-881.376,1180.38" style="fill:none;stroke:black;stroke-width:47.17px;"/>
            </g>
        </g>
    </g>
</svg>
